<?xml version="1.0" encoding="utf-8"?>
<!-- Generator: Adobe Illustrator 23.0.2, SVG Export Plug-In . SVG Version: 6.00 Build 0)  -->
<svg version="1.1" id="Layer_1" xmlns="http://www.w3.org/2000/svg" xmlns:xlink="http://www.w3.org/1999/xlink" x="0px" y="0px"
	 viewBox="0 0 121.1 146" style="enable-background:new 0 0 121.1 146;" xml:space="preserve">
<style type="text/css">
	.st0{fill:#303641;}
	.st1{fill:#C2C0C4;}
	.st2{fill:#FFFFFF;}
	.st3{fill:#D5E6F5;}
	.st4{fill:#D4E5F4;}
	.st5{fill:#C4D9EE;}
</style>
<g>
	<path class="st0" d="M1.4,138.5c1.9-18.1,16.3-34.2,33.9-37.9c0.8-0.2,1.6-0.3,2.5-0.4c2.3-0.1,4.3-0.6,4.2-3.9
		c-0.1-3.4-0.4-6.2-3.2-8.7c-3.8-3.5-6.1-8.3-7.2-13.5c-0.3-1.6-0.9-3-2.4-4.1c-3.4-2.7-5.1-6.5-5.8-10.8C23.2,57.7,23.1,56,24,55
		c2.2-2.5,1.2-4.9,0.7-7.6c-2.4-11.1-1.8-21.8,5.1-31.3C34.7,9.1,41.4,4.4,50.4,3.6c1.3-0.1,2.5-1.4,4-1c2.6,0.4,5.3,0.4,7.9,0
		c7.8,0.6,12.9,5.2,17.3,11.1c1,0.8,2.1,0.5,3.3,0.2c8.3,1.8,13.8,9.1,14.8,17.1c0.8,6.4-0.3,12.5-1.8,18.6
		c-0.4,1.6-0.9,2.9,0.9,4.3c1.4,1.1,1.5,3.2,1.2,4.9c-0.7,4.3-2.2,8.4-5.8,11.1c-1.3,1-2,2.2-2.3,3.8c-1.4,6-4.2,11.2-8.8,15.4
		c-1.4,1.3-2.4,8.2-1.4,9.6c1.5,2,4,1.3,6,1.7c7.9,1.6,14.2,5.5,20.1,10.9c6.8,6.2,11.3,13.4,13.3,22.2c0.4,1.8,0.6,3.7,0.9,5.5
		c-0.3,0.6-0.3,1.3-0.2,2c0.3,2-0.8,2.3-2.5,2.3c-37.7,0-75.4,0-113.1,0c-2.1,0-2.8-0.7-2.5-2.7C1.7,140,1.7,139.2,1.4,138.5z"/>
	<path class="st0" d="M62.3,2.5c-2.6,0.9-5.3,0.9-7.9,0C57,2.5,59.7,2.5,62.3,2.5z"/>
	<path class="st0" d="M82.8,13.8c-1.1,0.7-2.3,1-3.3-0.2C80.7,13.7,81.8,13.8,82.8,13.8z"/>
	<path class="st1" d="M5.3,140.5c-0.7-4.7,1-8.9,2.9-12.9c6.1-13.3,16.5-21.3,30.8-24.1c1.9-0.4,3.1-0.1,4.3,1.8
		c3.1,5,7.8,7.9,13.8,8.5c2.4-0.4,4.8-0.3,7.2,0c6.1-0.6,10.8-3.7,14-8.8c0.9-1.5,1.9-1.9,3.5-1.7c17.6,2.2,33.7,19.1,34.6,36.6
		c0,0.2-0.2,0.4-0.4,0.5c-0.9,0.5-1.9,0.3-2.9,0.3c-35,0-70,0-105,0C7.2,140.8,6.2,141,5.3,140.5z"/>
	<path class="st2" d="M86.9,70.8c-1.7,7.7-5.1,14.2-12,18.6c-3.7,2.4-8.2,3.2-11.8,5.7c-1.2,0.8-3.2,0.8-4.5,0.1
		c-5-2.5-10.8-3.8-15.1-7.5c-4.4-3.8-7.2-8.9-8.4-14.8c-0.2-0.7-0.4-1.5-0.6-2.2c-0.5-6.4-0.5-12.8,0-19.2c1.8-6.2,6.5-8.4,12.5-8.7
		c1.8-0.1,3.8,0.3,5.5-0.5c1-0.7,2.1-0.4,3.1-0.2c7.1-0.9,13.4-3.8,18.2-9.1c1.8-2,2.8-1.6,4.4-0.1c4.5,3.9,7,8.9,8.5,14.6
		c0.9,4.1,0.3,8.3,0.3,12.4C87.2,63.6,87.6,67.2,86.9,70.8z"/>
	<path class="st1" d="M90.1,47.6c-1-9.3-6.4-15.6-13.8-20.6c-0.7-0.5-1.5-0.9-2.2,0.2C69.8,34,63,36.8,55.7,38.8
		c-0.9,0.8-1.9,0.3-2.9,0.4c-2.5-0.2-5-1.3-7.6-0.2c-1.7,0.5-3.3,0.8-5,1.4c-5,1.8-8.3,5-9,10.5c0.3,1.3,0.5,2.6-0.1,3.9
		c-2.7-4-3.2-8.7-3.7-13.2c-2.5-21.2,11-34.1,26.8-35.3c0.3,0,0.6-0.3,0.9-0.4c2.2-0.7,4.4-0.6,6.6,0c2.2,0.9,4.7,1,6.9,2.1
		c3.8,1.9,6.4,4.8,8.3,8.5c1.7,0.9,3.7-0.3,5.4,0.7c9.6,4.1,13.6,11.8,11.8,23c-0.6,3.8-1.7,7.5-2.5,11.3c-0.2,0.9-0.4,1.7-1.3,2.2
		C89.6,51.6,89.8,49.6,90.1,47.6z"/>
	<path class="st2" d="M45.8,93.4c3.5,2.1,7.5,3,11,5.1c2.5,1.4,5.5,1.3,7.9-0.1c3.4-2.1,7.3-2.9,10.7-4.9c0.6,3.3,0.9,6.6-0.1,9.9
		c-2.2,3.5-5.9,5-9.2,7c-0.9,0.6-1.9-0.9-2.7,0.2c-1.9,0.6-3.8,0.6-5.7,0c-2.8-1-5.7-1.5-8.3-3.2c-1.7-1.1-2.2-2.8-3.5-4.1
		C45,100,45.2,96.7,45.8,93.4z"/>
	<path class="st0" d="M86.9,70.8c0-7.7,0-15.5-0.1-23.2c0.5,0.3,0.7,0.8,0.7,1.4c0,6.8,0,13.6,0,20.4C87.5,69.8,87.1,70.3,86.9,70.8
		z"/>
	<path class="st0" d="M34.5,51.5c0,6.4,0,12.8,0,19.2C33,67,34,63,33.9,59.2C33.8,56.7,33.1,54,34.5,51.5z"/>
	<path class="st3" d="M93.6,57.2c0.9,3.5-0.3,6.1-3,8C91.6,62.6,92.6,59.9,93.6,57.2z"/>
	<path class="st0" d="M45.8,93.4c-0.1,3.3-0.3,6.6,0.1,9.9C44.4,100,44.7,96.7,45.8,93.4z"/>
	<path class="st0" d="M75.3,103.3c0.5-3.3,0.2-6.6,0.1-9.9C76.6,96.7,76.9,100,75.3,103.3z"/>
	<path class="st0" d="M42.6,98.6c0-2.4,0-4.8,0-7.1c0.1,0,0.2,0,0.3,0c0,2.4,0,4.8,0,7.1C42.8,98.6,42.7,98.6,42.6,98.6z"/>
	<path class="st0" d="M78.4,98.6c0-2.4,0-4.8,0-7.1C79,93.8,79,96.2,78.4,98.6z"/>
	<path class="st4" d="M28.6,63.4c-0.7-1.3-1.4-2.6-1.5-4.5c1.7,1,1.9,2.4,2.2,3.7C29.5,63.2,29.3,63.5,28.6,63.4z"/>
	<path class="st0" d="M57.8,110.5c1.9,0,3.8,0,5.7,0c-1.8,1.6-3.9,0.5-5.8,0.5c0,0-0.1-0.2-0.1-0.3
		C57.6,110.7,57.7,110.6,57.8,110.5z"/>
	<path class="st0" d="M64.3,113.8c-2.4,0-4.8,0-7.2,0C59.5,112.9,61.9,112.9,64.3,113.8z"/>
	<path class="st0" d="M61.7,5.8c-2.2,0-4.4,0-6.6,0C57.2,4.6,59.4,4.7,61.7,5.8z"/>
	<path class="st0" d="M49.1,39c1.1-0.1,2.2-0.1,3.3-0.2c1.1,0,2.2,0,3.3,0C53.5,40.1,51.3,39.8,49.1,39z"/>
	<path class="st0" d="M90.1,47.6c0,2,0.1,4,0.1,5.9C89,51.6,89.2,49.6,90.1,47.6z"/>
	<path class="st0" d="M82.2,17.1c-1.8-0.4-3.8,0.6-5.4-0.7C78.6,16.7,80.6,15.6,82.2,17.1z"/>
	<path class="st0" d="M55.6,42.1c-1,0.1-2.1,0.1-3.1,0.2c-0.3-0.2-1.1-0.5-0.6-0.6C53.1,41.5,54.5,41.1,55.6,42.1z"/>
	<path class="st0" d="M31.1,54.8c0-1.3,0.1-2.6,0.1-3.9c1,1.2,0.6,2.6,0.4,4c0,0-0.2,0.1-0.3,0.1C31.2,54.9,31.1,54.8,31.1,54.8z"/>
	<path class="st5" d="M28.6,63.4c0.2-0.3,0.4-0.6,0.7-0.8c0.4,0.7,1.3,1.4,0.5,2C29.2,65,28.8,64,28.6,63.4z"/>
</g>
</svg>
